# xmcd
#
# Track frame offsets:
#	150
#	35221
#	55198
#	75994
#	110681
#	129167
#	152216
#
# Disc length: 2722 seconds
#
# Revision: 2
# Processed by: cddbd v1.5.2PL0 Copyright (c) Steve Scherf et al.
# Submitted via: EasyCDDAExtractor 10.0.2.1
#
DISCID=530aa007
DTITLE=John Lee Hooker and Canned Heat - Hooker 'N' Heat
DYEAR=1970
DGENRE=Blues
TTITLE0=The World Today
TTITLE1=I Got My Eyes On You
TTITLE2=Whiskey And Wimmen'
TTITLE3=Just You And Me
TTITLE4=Let's Make It
TTITLE5=Peavine
TTITLE6=Boogie Chillen No. 2
EXTD=
EXTT0=
EXTT1=
EXTT2=
EXTT3=
EXTT4=
EXTT5=
EXTT6=
PLAYORDER=
